<?xml version="1.0" encoding="iso-8859-1"?>
<!-- Uploaded to: SVG Repo, www.svgrepo.com, Generator: SVG Repo Mixer Tools -->
<svg height="800px" width="800px" version="1.1" id="Layer_1" xmlns="http://www.w3.org/2000/svg" xmlns:xlink="http://www.w3.org/1999/xlink" 
	 viewBox="0 0 512 512" xml:space="preserve">
<path style="fill:#27467A;" d="M438.468,149.787h-32.681l32.681,277.787l32.681-21.787V182.468
	C471.149,164.494,456.443,149.787,438.468,149.787z"/>
<path style="fill:#367596;" d="M405.787,149.787H73.532c-17.974,0-32.681,14.706-32.681,32.681v223.319l397.617,21.787V182.468
	C438.468,164.494,423.762,149.787,405.787,149.787z"/>
<path style="fill:#B7D9DD;" d="M471.149,427.574l-32.681,76.255h32.681c17.974,0,32.681-14.706,32.681-32.681v-21.787
	L471.149,427.574z"/>
<g>
	<path style="fill:#C7E7EB;" d="M471.149,471.149v-43.574L8.17,449.362v21.787c0,17.974,14.706,32.681,32.681,32.681h397.617
		C456.443,503.83,471.149,489.123,471.149,471.149z"/>
	<polygon style="fill:#C7E7EB;" points="471.149,405.787 438.468,405.787 422.684,427.574 471.149,449.362 503.83,449.362 	"/>
</g>
<polygon style="fill:#F0FEFF;" points="40.851,405.787 8.17,449.362 471.149,449.362 438.468,405.787 "/>
<circle cx="288.681" cy="318.638" r="8.17"/>
<circle cx="223.319" cy="318.638" r="8.17"/>
<circle cx="256" cy="318.638" r="8.17"/>
<path style="fill:#FFBE35;" d="M256,8.17l4.037,261.954l36.976-16.847l10.2-40.007c34.345-18.33,57.723-54.514,57.723-96.164
	C364.936,56.942,316.164,8.17,256,8.17z"/>
<path style="fill:#FFDB8A;" d="M271.88,223.67c34.492-10.438,60.376-54.179,60.376-106.564C332.255,56.942,298.115,8.17,256,8.17
	c-60.164,0-108.936,48.772-108.936,108.936c0,41.651,23.378,77.835,57.724,96.164l10.2,40.007l45.049,16.847L271.88,223.67z"/>
<path style="fill:#88ACB5;" d="M264.331,253.278l-24.672,32.681h32.681c8.987,0,18.156-7.126,20.378-15.834l4.295-16.847H264.331z"
	/>
<path style="fill:#A7CBCF;" d="M260.037,270.125l4.295-16.847h-49.344l4.295,16.847c2.22,8.708,11.39,15.834,20.378,15.834
	S257.816,278.833,260.037,270.125z"/>
<path style="fill:#FFFFFF;" d="M266.894,228.767h-21.787c-3.573,0-6.732-2.323-7.799-5.733l-27.234-87.149
	c-1.087-3.478,0.26-7.255,3.304-9.26c3.044-2.007,7.045-1.751,9.812,0.619l13.744,11.781l13.746-11.781
	c3.06-2.623,7.574-2.623,10.634,0l13.749,11.783l13.749-11.783c2.766-2.373,6.767-2.625,9.812-0.619
	c3.043,2.004,4.39,5.782,3.304,9.26l-27.234,87.149C273.626,226.445,270.467,228.767,266.894,228.767z M251.113,212.427h9.774
	l17.203-55.049c-2.756,1.1-5.983,0.637-8.345-1.386l-13.748-11.783l-13.747,11.783c-2.36,2.023-5.586,2.486-8.34,1.388
	L251.113,212.427z"/>
<path d="M510.366,444.46l-31.047-41.396V182.468c0-22.526-18.325-40.851-40.851-40.851h-67.954
	c1.697-7.96,2.593-16.164,2.593-24.511C373.106,52.534,320.573,0,256,0S138.894,52.534,138.894,117.106
	c0,8.347,0.895,16.551,2.593,24.511H73.532c-22.526,0-40.851,18.325-40.851,40.851v190.638c0,4.513,3.658,8.17,8.17,8.17
	s8.17-3.657,8.17-8.17V182.468c0-13.515,10.995-24.511,24.511-24.511h72.702c9.395,25.275,27.384,46.906,51.509,60.752l6.813,26.723
	c-3.411,0.982-5.909,4.119-5.909,7.846c0,4.513,3.658,8.17,8.17,8.17h1.821l2.727,10.694c3.143,12.328,15.57,21.987,28.294,21.987
	h32.681c12.724,0,25.151-9.657,28.294-21.987l2.727-10.694h1.821c4.512,0,8.17-3.657,8.17-8.17c0-3.727-2.498-6.864-5.909-7.846
	l6.813-26.723c24.125-13.845,42.115-35.476,51.509-60.752h72.702c13.516,0,24.511,10.996,24.511,24.511v215.149H40.851
	c-2.572,0-4.993,1.21-6.536,3.268L1.634,444.46C0.573,445.874,0,447.594,0,449.362v21.787C0,493.675,18.325,512,40.851,512h430.298
	C493.675,512,512,493.675,512,471.149v-21.787C512,447.594,511.427,445.874,510.366,444.46z M284.801,268.106
	c-1.292,5.067-7.231,9.682-12.46,9.682H239.66c-5.229,0-11.168-4.615-12.46-9.682l-1.697-6.658h60.997L284.801,268.106z
	 M303.364,206.063c-2.025,1.082-3.503,2.965-4.07,5.191l-8.631,33.854h-69.327l-8.631-33.854c-0.568-2.226-2.045-4.108-4.07-5.191
	c-32.939-17.578-53.402-51.664-53.402-88.956C155.234,61.543,200.437,16.34,256,16.34s100.766,45.203,100.766,100.766
	C356.766,154.398,336.303,188.485,303.364,206.063z M44.936,413.957h422.128l20.426,27.234H24.511L44.936,413.957z M471.149,495.66
	H40.851c-13.516,0-24.511-10.996-24.511-24.511v-13.617H247.83v13.617c0,4.513,3.658,8.17,8.17,8.17s8.17-3.657,8.17-8.17v-13.617
	H495.66v13.617C495.66,484.664,484.665,495.66,471.149,495.66z"/>
</svg>