<?xml version="1.0" encoding="iso-8859-1"?>
<!-- Uploaded to: SVG Repo, www.svgrepo.com, Generator: SVG Repo Mixer Tools -->
<svg version="1.1" id="Layer_1" xmlns="http://www.w3.org/2000/svg" xmlns:xlink="http://www.w3.org/1999/xlink" 
	 viewBox="0 0 512 512" xml:space="preserve">
<path style="fill:#4B92B9;" d="M197.351,412.735h-66.604c-7.626,0-12.683-7.904-9.488-14.828l24.504-53.09h36.571l24.504,53.09
	C210.034,404.831,204.977,412.735,197.351,412.735z"/>
<path style="fill:#79CAE8;" d="M197.35,412.735h-66.602c-7.628,0-12.685-7.899-9.488-14.827l4.086-8.86h77.406l4.086,8.86
	C210.035,404.835,204.978,412.735,197.35,412.735z"/>
<rect x="7.837" y="135.837" style="fill:#4B92B9;" width="312.424" height="208.98"/>
<rect x="33.959" y="161.959" style="fill:#CAF9F4;" width="260.18" height="156.735"/>
<rect x="351.608" y="99.265" style="fill:#4B92B9;" width="152.555" height="313.469"/>
<rect x="380.865" y="390.792" style="fill:#79CAE8;" width="94.041" height="21.943"/>
<g>
	<rect x="380.865" y="138.271" style="fill:#CAF9F4;" width="94.041" height="31.347"/>
	<rect x="380.865" y="194.612" style="fill:#CAF9F4;" width="94.041" height="31.347"/>
	<rect x="380.865" y="225.959" style="fill:#CAF9F4;" width="94.041" height="31.347"/>
</g>
<circle style="fill:#FF503D;" cx="427.886" cy="300.011" r="18.286"/>
<circle style="fill:#8EC766;" cx="427.886" cy="353.301" r="13.061"/>
<path d="M0,352.653h133.515l-19.37,41.969c-2.627,5.691-2.179,12.239,1.2,17.519c3.377,5.279,9.136,8.43,15.403,8.43h66.604
	c6.267,0,12.026-3.152,15.403-8.43c3.377-5.28,3.825-11.827,1.199-17.518l-19.37-41.97h133.516V128H0V352.653z M199.551,403.694
	c-0.287,0.45-0.956,1.204-2.199,1.204h-66.604c-1.243,0-1.912-0.754-2.2-1.204c-0.287-0.45-0.693-1.373-0.171-2.504l1.987-4.307
	h67.371l1.988,4.308C200.244,402.32,199.839,403.244,199.551,403.694z M190.501,381.21h-52.903l13.18-28.557h26.544L190.501,381.21z
	 M15.673,143.673h296.751V336.98H15.673V143.673z"/>
<path d="M26.122,326.531h275.853V154.122H26.122V326.531z M41.796,169.796h244.506v141.061H41.796V169.796z"/>
<path d="M343.771,91.429v329.143H512V91.429H343.771z M467.069,404.898h-78.367v-6.269h78.367V404.898z M496.327,404.898h-13.584
	v-21.943H373.029v21.943h-13.584V107.102h136.882V404.898z"/>
<path d="M482.743,130.43H373.029v47.02h109.714V130.43z M467.069,161.777h-78.367v-15.673h78.367V161.777z"/>
<path d="M482.743,233.796v-15.673v-31.347H373.029v31.347v15.673v31.347h109.714V233.796z M388.702,202.449h78.367v15.673h-78.367
	V202.449z M467.069,249.469h-78.367v-15.673h78.367V249.469z"/>
<path d="M427.886,273.894c-14.404,0-26.122,11.719-26.122,26.122c0,14.404,11.719,26.122,26.122,26.122
	c14.404,0,26.122-11.719,26.122-26.122C454.008,285.612,442.29,273.894,427.886,273.894z M427.886,310.465
	c-5.762,0-10.449-4.687-10.449-10.449c0-5.762,4.687-10.449,10.449-10.449c5.762,0,10.449,4.687,10.449,10.449
	C438.335,305.778,433.647,310.465,427.886,310.465z"/>
<path d="M427.886,332.408c-11.523,0-20.898,9.375-20.898,20.898c0,11.523,9.375,20.898,20.898,20.898
	c11.523,0,20.898-9.375,20.898-20.898C448.784,341.783,439.409,332.408,427.886,332.408z M427.886,358.531
	c-2.881,0-5.224-2.344-5.224-5.224c0-2.881,2.344-5.225,5.224-5.225c2.881,0,5.225,2.344,5.225,5.225
	C433.11,356.187,430.766,358.531,427.886,358.531z"/>
</svg>