<?xml version="1.0" standalone="no"?>
<!DOCTYPE svg PUBLIC "-//W3C//DTD SVG 20010904//EN"
 "http://www.w3.org/TR/2001/REC-SVG-20010904/DTD/svg10.dtd">
<svg version="1.0" xmlns="http://www.w3.org/2000/svg"
 width="515.000000pt" height="484.000000pt" viewBox="0 0 515.000000 484.000000"
 preserveAspectRatio="xMidYMid meet">

<g transform="translate(0.000000,484.000000) scale(0.100000,-0.100000)"
fill="#000000" stroke="none">
<path d="M2495 4588 c-16 -6 -88 -45 -160 -86 -71 -41 -215 -125 -320 -185
-196 -113 -337 -194 -750 -432 -132 -76 -287 -165 -345 -199 -58 -34 -117 -68
-132 -75 -50 -26 -94 -69 -123 -122 l-30 -54 -3 -1014 c-3 -1141 -6 -1084 70
-1166 22 -25 59 -55 82 -68 22 -13 127 -73 231 -134 438 -254 809 -469 905
-523 36 -20 168 -96 295 -170 293 -170 302 -174 381 -167 69 5 64 3 354 172
102 59 259 150 350 203 91 52 309 178 485 280 712 412 670 384 709 467 l26 54
0 1028 0 1029 -26 52 c-34 69 -68 96 -264 209 -91 53 -271 156 -400 231 -236
136 -314 181 -800 463 -358 207 -382 219 -450 218 -30 0 -68 -5 -85 -11z
m-141 -1654 c30 -30 18 -56 -61 -136 l-78 -78 78 -78 c42 -42 77 -86 77 -96 0
-26 -29 -56 -53 -56 -21 0 -237 205 -237 225 0 6 49 61 109 123 110 114 134
128 165 96z m328 -1 c10 -9 18 -23 18 -32 0 -21 -150 -372 -168 -393 -22 -26
-59 -22 -78 7 -15 23 -13 31 66 217 95 223 113 245 162 201z m278 -98 l114
-115 -54 -56 c-156 -160 -171 -174 -193 -174 -31 0 -47 18 -47 53 0 24 15 44
76 101 l76 72 -76 78 c-59 60 -76 85 -76 107 0 28 20 48 50 49 9 0 67 -52 130
-115z m-1284 -609 c3 -14 3 -34 -1 -45 -6 -20 -14 -21 -121 -21 l-114 0 0 -35
0 -35 100 0 100 0 0 -45 0 -45 -100 0 -100 0 0 -35 0 -34 118 -3 117 -3 0 -40
0 -40 -144 -3 -144 -3 -34 33 -33 32 0 173 0 173 175 0 175 0 6 -24z m413 -10
c24 -25 32 -41 29 -62 -3 -25 -8 -29 -37 -32 -23 -2 -43 3 -63 18 -23 17 -40
20 -86 18 l-57 -3 -3 -90 c-4 -132 -3 -135 64 -135 40 0 62 6 83 21 19 14 39
19 62 17 29 -3 34 -7 37 -32 3 -21 -5 -37 -29 -62 l-33 -34 -117 0 -117 0 -31
35 -31 36 0 134 0 134 31 36 31 35 117 0 117 0 33 -34z m229 -48 l3 -78 69 0
70 0 0 80 0 80 55 0 55 0 0 -205 0 -205 -55 0 -55 0 0 80 0 80 -70 0 -70 0 0
-80 0 -80 -55 0 -55 0 0 206 0 205 53 -3 52 -3 3 -77z m882 37 l0 -44 -57 -3
-58 -3 -3 -157 -3 -158 -54 0 -55 0 0 148 c0 102 -4 152 -12 160 -7 7 -34 12
-60 12 l-48 0 0 45 0 45 175 0 175 0 0 -45z m220 0 c0 -33 -4 -45 -15 -45 -12
0 -15 -19 -15 -114 0 -92 3 -115 15 -120 10 -3 15 -19 15 -46 l0 -40 -85 0
-85 0 0 45 c0 33 4 45 15 45 12 0 15 19 15 115 0 96 -3 115 -15 115 -11 0 -15
12 -15 45 l0 45 85 0 85 0 0 -45z m400 0 l0 -44 -57 -3 -58 -3 -3 -157 -3
-158 -54 0 -54 0 -3 158 -3 157 -57 3 -58 3 0 44 0 45 175 0 175 0 0 -45z"/>
</g>
</svg>
