<?xml version="1.0" encoding="UTF-8" standalone="no"?>
<!-- Created with Inkscape (http://www.inkscape.org/) -->

<svg
   xmlns:dc="http://purl.org/dc/elements/1.1/"
   xmlns:cc="http://creativecommons.org/ns#"
   xmlns:rdf="http://www.w3.org/1999/02/22-rdf-syntax-ns#"
   xmlns:svg="http://www.w3.org/2000/svg"
   xmlns="http://www.w3.org/2000/svg"
   xmlns:sodipodi="http://sodipodi.sourceforge.net/DTD/sodipodi-0.dtd"
   xmlns:inkscape="http://www.inkscape.org/namespaces/inkscape"
   width="20.975302mm"
   height="18.000927mm"
   viewBox="0 0 20.975302 18.000927"
   version="1.1"
   id="svg8"
   inkscape:export-filename="/run/media/sek/ixsystems/sxe/petition/paid/doc/players-vector.png"
   inkscape:export-xdpi="400"
   inkscape:export-ydpi="400"
   inkscape:version="0.92.2 5c3e80d, 2017-08-06"
   sodipodi:docname="players.svg">
  <defs
     id="defs2" />
  <sodipodi:namedview
     id="base"
     pagecolor="#ffffff"
     bordercolor="#666666"
     borderopacity="1.0"
     inkscape:pageopacity="0.0"
     inkscape:pageshadow="2"
     inkscape:zoom="5.6"
     inkscape:cx="71.511536"
     inkscape:cy="28.210054"
     inkscape:document-units="mm"
     inkscape:current-layer="layer1"
     showgrid="false"
     fit-margin-top="0"
     fit-margin-left="0"
     fit-margin-right="0"
     fit-margin-bottom="0"
     inkscape:window-width="1920"
     inkscape:window-height="1025"
     inkscape:window-x="-2"
     inkscape:window-y="32"
     inkscape:window-maximized="1" />
  <metadata
     id="metadata5">
    <rdf:RDF>
      <cc:Work
         rdf:about="">
        <dc:format>image/svg+xml</dc:format>
        <dc:type
           rdf:resource="http://purl.org/dc/dcmitype/StillImage" />
        <dc:title></dc:title>
      </cc:Work>
    </rdf:RDF>
  </metadata>
  <g
     inkscape:label="Layer 1"
     inkscape:groupmode="layer"
     id="layer1"
     transform="translate(-22.631323,-20.841146)">
    <ellipse
       style="opacity:1;fill:#000000;fill-opacity:0.98529412;stroke:none;stroke-width:0.26458332;stroke-opacity:1"
       id="path921"
       cx="24.521204"
       cy="24.030319"
       rx="1.8898809"
       ry="1.8662573" />
    <path
       style="opacity:1;fill:#000000;fill-opacity:0.98529412;stroke:none;stroke-width:0.99999994;stroke-opacity:1"
       d="m 93.820312,98.324219 c -4.050373,0.125878 -7.236886,1.341765 -7.213169,4.373601 0.04025,5.14409 -2.62908,24.17726 0.535435,28.39398 2.682526,3.57446 10.200333,2.89682 12.433594,2.61523 0.135767,0.037 0.276006,0.0625 0.423828,0.0625 h 7.14258 v 10.89258 c 0,1.08821 0.63826,1.96484 1.42969,1.96484 h 5.35546 c 0.79143,0 1.42969,-0.87663 1.42969,-1.96484 v -12.5 -0.17773 -4.82227 c 0,-0.89036 -0.71706,-1.60742 -1.60742,-1.60742 h -13.5332 c 0.0762,-3.66483 0.1926,-8.09235 0.18359,-12.27344 l 8.98828,2.91016 c 0.53722,0.17399 1.18553,-0.35717 1.45508,-1.18946 l 0.78711,-2.43164 c 0.26955,-0.83229 0.0548,-1.64241 -0.48242,-1.8164 l -10.88672,-3.52539 c -0.17043,-3.17171 -0.511098,-5.75501 -1.154298,-7.0293 -0.693961,-1.374854 -2.856885,-1.950528 -5.28711,-1.875001 z"
       transform="scale(0.26458333)"
       id="rect923"
       inkscape:connector-curvature="0"
       sodipodi:nodetypes="scccscssssccsscccccccss" />
    <path
       id="path946"
       d="m 41.380104,26.014949 c 1.071661,0.03331 2.056501,0.543997 2.050226,1.346171 -0.01065,1.361041 0.553869,6.207911 -0.283409,7.323585 -0.709751,0.945743 -2.698838,0.76645 -3.289721,0.691946 -0.03592,0.0098 -0.07303,0.01654 -0.112138,0.01654 h -1.889808 v 2.881995 c 0,0.287922 -0.168873,0.519864 -0.378272,0.519864 h -1.416965 c -0.2094,0 -0.378273,-0.231942 -0.378273,-0.519864 v -3.307292 -0.04702 -1.275892 c 0,-0.235575 0.189723,-0.425297 0.425297,-0.425297 H 39.6877 c -0.02015,-0.969653 -0.05096,-2.141101 -0.04858,-3.247348 l -2.378149,0.76998 c -0.142139,0.04603 -0.313671,-0.0945 -0.38499,-0.314711 l -0.208256,-0.643372 c -0.07132,-0.22021 -0.0145,-0.434554 0.12764,-0.480589 l 2.880445,-0.932759 c 0.04509,-0.839182 0.135228,-1.52268 0.305408,-1.859836 0.18361,-0.363763 0.755884,-0.516077 1.398881,-0.496094 z"
       style="opacity:1;fill:#000000;fill-opacity:0.98529412;stroke:none;stroke-width:0.26458332;stroke-opacity:1"
       inkscape:connector-curvature="0"
       sodipodi:nodetypes="ccscscssssccsscccccccscc" />
    <ellipse
       ry="1.8662573"
       rx="1.8898809"
       cy="24.030319"
       cx="41.652988"
       id="ellipse948"
       style="opacity:1;fill:#000000;fill-opacity:0.98529412;stroke:none;stroke-width:0.26458332;stroke-opacity:1" />
    <ellipse
       style="opacity:1;fill:#909090;fill-opacity:0.9852941;stroke:none;stroke-width:0.26458332;stroke-opacity:1"
       id="ellipse950"
       cx="32.713852"
       cy="22.707403"
       rx="1.8898809"
       ry="1.8662573"
       inkscape:export-xdpi="400"
       inkscape:export-ydpi="400" />
    <path
       style="opacity:1;fill:#909090;fill-opacity:0.9852941;stroke:none;stroke-width:0.26458332;stroke-opacity:1"
       d="m 32.685268,24.715287 c -0.921512,0 -1.67844,0.653408 -1.81746,1.512052 h -0.02481 v 0.283704 1.511536 1.795756 h 1.842265 0.378272 1.842783 v -1.795756 -1.511536 -0.283704 h -0.02532 c -0.139017,-0.858644 -0.895945,-1.512052 -1.81746,-1.512052 z"
       id="rect952"
       inkscape:connector-curvature="0"
       inkscape:export-xdpi="400"
       inkscape:export-ydpi="400" />
    <path
       style="opacity:1;fill:#000000;fill-opacity:0.98529412;stroke:none;stroke-width:1.03823018;stroke-opacity:1"
       d="m 106.51758,116.62695 c -1.43447,0 -2.58985,1.15538 -2.58985,2.58985 0,1.43446 1.15538,2.58789 2.58985,2.58789 h 11.71289 c -0.12251,0.48599 -0.19531,0.99249 -0.19531,1.51758 v 17.32421 c 0,3.41239 2.74776,6.15821 6.16015,6.15821 h 1.07422 c 3.41239,0 6.1582,-2.74582 6.1582,-6.15821 v -17.32421 c 0,-0.52509 -0.0709,-1.03159 -0.19335,-1.51758 h 11.17578 c 1.43446,0 2.58984,-1.15343 2.58984,-2.58789 0,-1.43447 -1.15538,-2.58985 -2.58984,-2.58985 z"
       transform="scale(0.26458333)"
       id="rect957"
       inkscape:connector-curvature="0" />
    <rect
       style="opacity:1;fill:#000000;fill-opacity:0.98529412;stroke:none;stroke-width:0.26458332;stroke-opacity:1"
       id="rect961"
       width="6.9925604"
       height="0.4252224"
       x="29.52939"
       y="30.007067"
       ry="0.2126112" />
  </g>
</svg>
