<svg class="svg-icon" style="width: 1em; height: 1em;vertical-align: middle;fill: currentColor;overflow: hidden;" viewBox="0 0 1024 1024" version="1.1" xmlns="http://www.w3.org/2000/svg"><path d="M512 512m-414 0a414 414 0 1 0 828 0 414 414 0 1 0-828 0Z" fill="#F0C48A" /><path d="M258 187.6V83.4c0-39.4 32.2-71.8 71.8-71.8h364.6C733.8 11.8 766 44 766 83.4v857c0 39.4-32.2 71.8-71.8 71.8H329.8c-39.4 0-71.8-32.2-71.8-71.8V187.6z" fill="#D3E6F8" /><path d="M258 152.4h510v650.8H258z" fill="#FFFFFF" /><path d="M667.8 158.2H766V68c0-29.4-23.8-53.2-53.2-53.2h-45v143.4zM667.8 1012.2h25.2c40.4 0 73.2-32.8 73.2-73.2v-126.8c0-5-4-9-9-9H668v209z" fill="#7BABF1" /><path d="M667.8 158.2H766v645h-98.2z" fill="#D3E6F8" /><path d="M480.892573 936.104655a44 44 0 1 0 62.22431-62.226482 44 44 0 1 0-62.22431 62.226482Z" fill="#7BABF1" /><path d="M763.2 164.2H260.8c-6.4 0-11.8-5.2-11.8-11.8s5.2-11.8 11.8-11.8h502.6c6.4 0 11.8 5.2 11.8 11.8s-5.4 11.8-12 11.8zM763.2 815H260.8c-6.4 0-11.8-5.2-11.8-11.8 0-6.4 5.2-11.8 11.8-11.8h502.6c6.4 0 11.8 5.2 11.8 11.8-0.2 6.6-5.4 11.8-12 11.8zM512 960.6c-30.8 0-55.6-25-55.6-55.6 0-30.8 25-55.6 55.6-55.6s55.6 25 55.6 55.6-24.8 55.6-55.6 55.6z m0-87.8c-17.8 0-32.2 14.4-32.2 32.2s14.4 32.2 32.2 32.2c17.8 0 32.2-14.4 32.2-32.2s-14.4-32.2-32.2-32.2z" fill="#4C4372" /><path d="M694.2 1024H329.8c-46 0-83.4-37.4-83.4-83.4V83.4c0-46 37.4-83.4 83.4-83.4h364.6c46 0 83.4 37.4 83.4 83.4v857c0 46.2-37.4 83.6-83.6 83.6zM329.8 23.4c-33.2 0-60 27-60 60v857c0 33.2 27 60 60 60h364.6c33.2 0 60-27 60-60V83.4c0-33.2-27-60-60-60H329.8z" fill="#4C4372" /><path d="M686.8 471c-6.4 0-11.8-5.2-11.8-11.8 0-70.6-57.4-128.2-128.2-128.2-6.4 0-11.8-5.2-11.8-11.8s5.2-11.8 11.8-11.8c83.6 0 151.6 68 151.6 151.6 0 6.8-5.2 12-11.6 12z" fill="#4C4372" /><path d="M642.4 471c-6.4 0-11.8-5.2-11.8-11.8 0-46.2-37.6-83.8-83.8-83.8-6.4 0-11.8-5.2-11.8-11.8s5.2-11.8 11.8-11.8c59.2 0 107.2 48 107.2 107.2 0 6.8-5.2 12-11.6 12z" fill="#4C4372" /><path d="M596 471c-6.4 0-11.8-5.2-11.8-11.8 0-20.6-16.8-37.4-37.4-37.4-6.4 0-11.8-5.2-11.8-11.8s5.2-11.8 11.8-11.8c33.6 0 61 27.4 61 61 0 6.6-5.2 11.8-11.8 11.8z" fill="#4C4372" /><path d="M532.553823 473.721446a20.2 20.2 0 1 0 28.566616-28.567612 20.2 20.2 0 1 0-28.566616 28.567612Z" fill="#4C4372" /><path d="M437.8 432l33-33c9.2-9.2 9.2-24.4 0-33.6l-39-39c-9.2-9.2-24.4-9.2-33.6 0l-17 17-23.2 23.2a63.876 63.876 0 0 0-9.4 78.6c52.8 86.8 125.6 159.8 212.6 212.6 25.2 15.4 57.8 11.4 78.6-9.4l23-23 17-17c9.2-9.2 9.2-24.4 0-33.6l-39-39c-9.2-9.2-24.4-9.2-33.6 0l-33 33C522 530.2 476 484.2 437.8 432z" fill="#FD919E" /><path d="M640.8 535.4c-9.2-9.2-24.4-9.2-33.6 0l-21.4 21.4 72.6 72.8 4.4-4.4 17-17c9.2-9.2 9.2-24.4 0-33.6l-39-39.2zM376.8 347.6l72.6 72.8 21.2-21.2c9.2-9.2 9.2-24.4 0-33.6l-39-39c-9.2-9.2-24.4-9.2-33.6 0l-17 17-4.2 4z" fill="#E8677D" /><path d="M594.4 678.8c-13.6 0-27.2-3.6-39.4-11-88-53.6-163-128.4-216.4-216.4-18.2-30-13.6-68.2 11.2-93l23-23 16.8-16.8c13.8-13.8 36.4-13.8 50.2 0l39 39c13.8 13.8 13.8 36.4 0 50.2l-25.8 25.8c34.4 45.2 74.6 85.4 119.8 119.8l25.8-25.8c6.8-6.8 15.6-10.4 25-10.4s18.4 3.6 25 10.4l39 39c13.8 13.8 13.8 36.4 0 50.2l-17 17-22.6 22.8c-14.6 14.6-34 22.2-53.6 22.2zM388.8 352.4l-22.4 22.4c-17.2 17.2-20.4 43.6-7.8 64.2 51.6 84.8 123.8 157 208.6 208.6 20.6 12.6 47.2 9.4 64.2-7.8l22.4-22.4 1.2-1.2 16.4-16.4c4.6-4.6 4.6-12.4 0-17l-39-39c-2.2-2.2-5.2-3.6-8.6-3.6-3.2 0-6.2 1.2-8.6 3.6l-33 33c-4 4-10.6 4.6-15.2 1.2-53.2-39-99.8-85.8-138.8-138.8-3.4-4.6-3-11.2 1.2-15.2l33-33c4.6-4.6 4.6-12.4 0-17l-39-39c-4.6-4.6-12.4-4.6-17 0l-16.4 16.4c-0.4 0.2-0.8 0.6-1.2 1z" fill="#4C4372" /></svg>