<?xml version="1.0" encoding="iso-8859-1"?>
<!-- Uploaded to: SVG Repo, www.svgrepo.com, Generator: SVG Repo Mixer Tools -->
<svg height="800px" width="800px" version="1.1" id="Layer_1" xmlns="http://www.w3.org/2000/svg" xmlns:xlink="http://www.w3.org/1999/xlink" 
	 viewBox="0 0 485.08 485.08" xml:space="preserve">
<ellipse transform="matrix(-0.2737 -0.9618 0.9618 -0.2737 -291.9029 597.2406)" style="fill:#EA7103;" cx="79.546" cy="408.833" rx="67.999" ry="70.399"/>
<g>
	<path style="fill:#F7910B;" d="M485.08,284.048c0,104-95.2,188-242.4,188s-242.4-84-242.4-188s95.2-260,242.4-260
		S485.08,180.048,485.08,284.048z"/>
	<path style="fill:#F7910B;" d="M485.08,284.048c0,104-95.2,156-242.4,156s-242.4-52-242.4-156s95.2-276,242.4-276
		S485.08,180.048,485.08,284.048z"/>
</g>
<g>
	<path style="fill:#F9A908;" d="M242.68,8.048c147.2,0,242.4,172,242.4,276s-95.2,156-242.4,156"/>
	<path style="fill:#F9A908;" d="M485.08,284.048c0,104-95.2,156-242.4,156s-242.4-52-242.4-156s95.2-260,242.4-260
		S485.08,180.048,485.08,284.048z"/>
</g>
<path style="fill:#F9C55D;" d="M0.28,284.048c0-104,95.2-260,242.4-260"/>
<path style="fill:#F7910B;" d="M242.68,24.048c147.2,0,242.4,156,242.4,260s-95.2,188-242.4,188"/>
<g>
	<path style="fill:#EA7103;" d="M242.68,24.048c147.2,0,242.4,156,242.4,260"/>
	<circle style="fill:#EA7103;" cx="159.48" cy="189.648" r="25.6"/>
	<circle style="fill:#EA7103;" cx="325.88" cy="189.648" r="25.6"/>
</g>
<circle style="fill:#1E4784;" cx="159.48" cy="182.448" r="25.6"/>
<path style="fill:#00233F;" d="M159.48,156.848c14.4,0,25.6,11.2,25.6,25.6s-11.2,25.6-25.6,25.6"/>
<circle style="fill:#1E4784;" cx="325.88" cy="182.448" r="25.6"/>
<path style="fill:#00233F;" d="M325.88,156.848c14.4,0,25.6,11.2,25.6,25.6s-11.2,25.6-25.6,25.6"/>
<g>
	<path style="fill:#19BCA4;" d="M192.28,80.848c0,7.2-11.2,4-26.4,4.8c-14.4,0.8-26.4,4.8-26.4-2.4c0-7.2,11.2-12.8,25.6-13.6
		C180.28,68.048,192.28,73.648,192.28,80.848z"/>
	<path style="fill:#19BCA4;" d="M293.08,80.848c0,7.2,11.2,4,26.4,4.8c14.4,0.8,26.4,4.8,26.4-2.4c0-7.2-11.2-12.8-25.6-13.6
		C305.08,68.048,293.08,73.648,293.08,80.848z"/>
</g>
<g>
	<path style="fill:#109DA0;" d="M192.28,80.848c0,7.2-11.2,4-26.4,4.8c-14.4,0.8-26.4,4.8-26.4-2.4"/>
	<path style="fill:#109DA0;" d="M293.08,80.848c0,7.2,11.2,4,26.4,4.8c14.4,0.8,26.4,4.8,26.4-2.4"/>
</g>
<path style="fill:#F9C55D;" d="M209.08,230.448c0,9.6-28,5.6-62.4,5.6s-62.4,4.8-62.4-5.6c0-9.6,28-17.6,62.4-17.6
	S209.08,220.848,209.08,230.448z"/>
<path style="fill:#F9A908;" d="M401.08,230.448c0,9.6-28,5.6-62.4,5.6s-62.4,4.8-62.4-5.6c0-9.6,28-17.6,62.4-17.6
	S401.08,220.848,401.08,230.448z"/>
<path style="fill:#F7910B;" d="M296.28,288.848c0,19.2-24,52.8-53.6,52.8s-53.6-34.4-53.6-52.8"/>
<g>
	<path style="fill:#02243E;" d="M133.08,272.848c-4.8,0-8-3.2-8-8s3.2-8,8-8c6.4,0,11.2-4.8,11.2-11.2c0-4.8,3.2-8,8-8s8,3.2,8,8
		C161.08,260.848,148.28,272.848,133.08,272.848z"/>
	<path style="fill:#02243E;" d="M352.28,272.848c-15.2,0-27.2-12-27.2-27.2c0-4.8,3.2-8,8-8s8,3.2,8,8c0,6.4,4.8,11.2,11.2,11.2
		c4.8,0,8,3.2,8,8S356.28,272.848,352.28,272.848z"/>
	<path style="fill:#02243E;" d="M242.68,308.848c-38.4,0-74.4-15.2-101.6-41.6c-3.2-3.2-3.2-8,0-11.2s8-3.2,11.2,0
		c24,24,56,37.6,90.4,37.6s65.6-13.6,90.4-37.6c3.2-3.2,8-3.2,11.2,0s3.2,8,0,11.2C317.08,294.448,281.08,308.848,242.68,308.848z"
		/>
</g>
<path style="fill:#F9C55D;" d="M285.08,268.848c0,8.8-19.2,16.8-42.4,16.8s-42.4-7.2-42.4-16.8"/>
<g>
	<circle style="fill:#F7910B;" cx="69.08" cy="260.048" r="4.8"/>
	<circle style="fill:#F7910B;" cx="33.08" cy="276.048" r="8.8"/>
	<circle style="fill:#F7910B;" cx="57.08" cy="244.048" r="1.6"/>
	<circle style="fill:#F7910B;" cx="93.88" cy="258.448" r="1.6"/>
</g>
<g>
	<circle style="fill:#F9A908;" cx="407.48" cy="262.448" r="6.4"/>
	<circle style="fill:#F9A908;" cx="427.48" cy="273.648" r="1.6"/>
	<circle style="fill:#F9A908;" cx="385.08" cy="203.248" r="2.4"/>
	<circle style="fill:#F9A908;" cx="381.08" cy="296.048" r="10.4"/>
	<circle style="fill:#F9A908;" cx="438.68" cy="296.848" r="4.8"/>
</g>
<g>
	<circle style="fill:#F7910B;" cx="61.08" cy="292.048" r="4"/>
	<circle style="fill:#F7910B;" cx="67.48" cy="224.848" r="3.2"/>
</g>
<g>
	<circle style="fill:#F9A908;" cx="25.08" cy="114.448" r="8.8"/>
	<circle style="fill:#F9A908;" cx="50.68" cy="86.448" r="4.8"/>
	<circle style="fill:#F9A908;" cx="460.28" cy="133.648" r="1.6"/>
	<circle style="fill:#F9A908;" cx="453.88" cy="110.448" r="6.4"/>
	<circle style="fill:#F9A908;" cx="474.68" cy="114.448" r="4"/>
	<circle style="fill:#F9A908;" cx="34.68" cy="138.448" r="4.8"/>
</g>
<path style="fill:#CCF2E3;" d="M98.68,322.448c23.2,46.4,6.4,40-6.4,46.4c-13.6,6.4-18.4,24-41.6-22.4s-21.6-70.4-8-76.8
	C55.48,263.248,75.48,276.048,98.68,322.448z"/>
<path style="fill:#AAD6C3;" d="M41.88,269.648c13.6-6.4,33.6,6.4,56.8,52.8s6.4,40-6.4,46.4"/>
<path style="fill:#CCF2E3;" d="M65.08,374.448c23.2,46.4,6.4,40-7.2,46.4s-15.2,30.4-38.4-16s-24-76.8-11.2-83.2
	C21.88,315.248,41.88,328.048,65.08,374.448z"/>
<path style="fill:#AAD6C3;" d="M8.28,321.648c13.6-6.4,33.6,6.4,56,52.8c23.2,46.4,6.4,40-7.2,46.4"/>
<path style="fill:#CCF2E3;" d="M156.28,317.648c23.2,46.4,6.4,40-6.4,46.4c-13.6,6.4-18.4,24-41.6-22.4s-21.6-70.4-8-76.8
	C113.08,258.448,133.08,271.248,156.28,317.648z"/>
<path style="fill:#AAD6C3;" d="M99.48,264.848c13.6-6.4,33.6,6.4,56.8,52.8s6.4,40-6.4,46.4"/>
<path style="fill:#CCF2E3;" d="M171.48,348.048c21.6,42.4,16.8,89.6-26.4,111.2c-43.2,21.6-95.2,4.8-116.8-38.4
	c-21.6-42.4,5.6-76,48.8-97.6C120.28,302.448,149.88,305.648,171.48,348.048z"/>
<path style="fill:#AAD6C3;" d="M171.48,348.048c21.6,42.4,16.8,89.6-26.4,111.2c-43.2,21.6-75.2-9.6-96.8-52.8
	c-21.6-41.6-39.2-43.2,26.4-81.6C117.08,300.848,149.08,304.048,171.48,348.048z"/>
<path style="fill:#CCF2E3;" d="M195.48,328.048c16,7.2,14.4,44.8-4,84c-17.6,39.2-50.4,53.6-66.4,46.4s-8.8-33.6,8.8-72.8
	C152.28,346.448,179.48,320.848,195.48,328.048z"/>
<path style="fill:#AAD6C3;" d="M195.48,328.048c16,7.2,14.4,44.8-4,84c-17.6,39.2-50.4,53.6-66.4,46.4"/>
<g>
	<path style="fill:#CCF2E3;" d="M130.68,329.648c0.8,1.6,0.8,3.2,0,4l-65.6,59.2c-1.6,0.8-3.2,0.8-4,0l0,0c-0.8-1.6-0.8-3.2,0-4
		l65.6-59.2C127.48,328.848,129.88,328.848,130.68,329.648L130.68,329.648z"/>
	<path style="fill:#CCF2E3;" d="M137.88,347.248c0.8,1.6,0.8,3.2,0,4l-65.6,59.2c-1.6,0.8-3.2,0.8-4,0l0,0c-0.8-1.6-0.8-3.2,0-4
		l65.6-59.2C134.68,345.648,136.28,346.448,137.88,347.248L137.88,347.248z"/>
</g>
<g>
	<path style="fill:#E7F7EF;" d="M36.28,291.248c0,7.2,2.4,12.8,4.8,12.8c2.4,0,4-6.4,4-13.6s-2.4-12.8-4.8-12.8
		C37.88,277.648,36.28,284.048,36.28,291.248z"/>
	
		<ellipse transform="matrix(0.0298 0.9996 -0.9996 0.0298 353.6787 328.9174)" style="fill:#E7F7EF;" cx="7.401" cy="346.652" rx="13.601" ry="4"/>
	
		<ellipse transform="matrix(0.0289 0.9996 -0.9996 0.0289 383.0493 179.2884)" style="fill:#E7F7EF;" cx="99.249" cy="286.79" rx="13.6" ry="4"/>
	<path style="fill:#E7F7EF;" d="M38.68,402.448c7.2,13.6,10.4,26.4,7.2,28s-11.2-8-18.4-22.4c-7.2-13.6-6.4-18.4-3.2-20
		C26.68,386.448,31.48,388.848,38.68,402.448z"/>
	<path style="fill:#E7F7EF;" d="M157.88,355.248c7.2-11.2,16-18.4,18.4-16.8c3.2,1.6-0.8,12.8-8,24s-11.2,12-14.4,10.4
		C150.68,370.448,149.88,366.448,157.88,355.248z"/>
</g>
</svg>